<?xml version="1.0" standalone="no"?>
<!DOCTYPE svg PUBLIC "-//W3C//DTD SVG 1.1//EN" "http://www.w3.org/Graphics/SVG/1.1/DTD/svg11.dtd" >
<svg>
<metadata>
Created by FontForge 20090914 at Wed Aug 22 20:35:08 2012
 By www-data
Copyright (c) 2011 by Dai Foldes. All rights reserved.
</metadata>
<defs>
<font id="Pigeon" horiz-adv-x="300" >
  <font-face 
    font-family="Pigeon"
    font-weight="500"
    font-stretch="normal"
    units-per-em="1000"
    panose-1="2 0 0 0 0 0 0 0 0 0"
    ascent="770"
    descent="-230"
    x-height="452"
    cap-height="700"
    bbox="-128 -231 862 942"
    underline-thickness="50"
    underline-position="-50"
    unicode-range="U+0020-U+FB02"
  />
<missing-glyph horiz-adv-x="174" 
 />
    <glyph glyph-name="fi" unicode="fi" horiz-adv-x="486" 
d="M372 447c39 0 44 -32 40 -90l-24 -308l68 -15l-4 -34h-91c-34 0 -56 37 -51 90l30 303l-162 9l-28 -390c-23 -203 -109 -242 -202 -243c-18 0 -41 12 -51 27c0 0 3 14 15 35c11 20 23 35 23 35l90 -42c10 0 37 34 46 169l30 404h-90l2 27l92 23l3 38
c11 117 59 191 114 231c34 25 76 34 110 34c53 0 91 -39 109 -74c0 0 -2 -26 -20 -40s-43 -14 -43 -14l-69 82c-22 0 -37 -8 -55 -22c-27 -22 -59 -74 -68 -178l-5 -64z" />
    <glyph glyph-name="fl" unicode="fl" horiz-adv-x="527" 
d="M298 447l-3 -51l-117 2l-29 -391c-10 -130 -68 -237 -192 -237c-27 0 -50 16 -58 26c0 0 0 9 12 30c11 20 23 35 23 35l90 -42c10 0 36 34 46 169l31 409h-90l2 27l92 23l3 38c7 118 58 192 114 231c36 25 76 34 110 34c21 0 48 -6 73 -21l74 21l-53 -702l66 -15l-4 -33
h-88c-35 0 -53 23 -50 67l47 588c-23 25 -59 49 -88 49c-22 0 -39 -9 -57 -23c-27 -22 -57 -73 -66 -177l-5 -61z" />
    <glyph glyph-name="ffi" unicode="ffi" horiz-adv-x="714" 
d="M425 442l188 5h3c39 0 44 -32 40 -90l-24 -308l68 -15l-4 -34h-91c-34 0 -56 37 -51 90l30 303l-162 8l-26 -356c-7 -96 -56 -185 -116 -230c-35 -26 -74 -32 -108 -32c-28 0 -66 9 -95 35c-30 -30 -70 -48 -120 -48c-27 0 -50 16 -58 26c0 0 0 9 12 30
c11 20 23 35 23 35l90 -42c10 0 36 34 46 169l31 409h-90l2 27l92 23l2 22c7 118 58 192 114 231c36 25 76 34 110 34c30 0 73 -13 102 -47c11 11 22 21 33 29c34 25 76 34 110 34c53 0 91 -39 109 -74c0 0 -2 -26 -20 -40s-43 -14 -43 -14l-69 82c-22 0 -37 -8 -55 -22
c-27 -22 -59 -74 -68 -178zM149 7c-4 -53 -16 -102 -38 -142c23 -20 54 -36 84 -36c22 0 42 6 60 20c31 25 57 95 63 177l27 372h-167zM352 485c6 64 23 115 46 154c-22 26 -56 49 -90 49c-22 0 -39 -9 -57 -23c-27 -22 -57 -73 -66 -177l-4 -45h168z" />
    <glyph glyph-name="ffl" unicode="ffl" horiz-adv-x="765" 
d="M71 -7c0 0 19 267 30 404h-90l2 27l92 23c0 8 1 17 2 22c7 118 58 192 114 231c36 25 76 34 110 34c30 0 73 -13 102 -46c10 11 21 20 33 28c36 25 76 34 110 34c21 0 49 -6 74 -22l67 22l-53 -702l66 -15l-4 -33h-88c-35 0 -53 23 -50 67l47 594c-23 22 -55 43 -82 43
c-22 0 -39 -9 -57 -23c-27 -22 -57 -73 -66 -177l-5 -61l115 4s6 -12 5 -25s-8 -26 -8 -26l-115 2l-26 -353c-7 -96 -56 -185 -116 -230c-35 -26 -74 -32 -108 -32c-29 0 -69 10 -99 38c-35 -35 -79 -52 -125 -52c-18 0 -36 10 -46 25c0 0 0 14 12 35c11 20 24 28 24 28
l85 -39c9 3 39 40 48 175zM318 26l27 371l-1 1h-166l-27 -376c-5 -65 -20 -116 -43 -155c23 -21 55 -38 87 -38c22 0 42 6 60 20c31 25 57 95 63 177zM185 488l-4 -45h168l3 42c4 64 20 116 44 156c-22 25 -55 47 -88 47c-22 0 -39 -9 -57 -23c-27 -22 -57 -73 -66 -177z
" />
    <glyph glyph-name="ff" unicode="ff" horiz-adv-x="500" 
d="M71 -7c0 0 19 267 30 404h-90l2 27l92 23c0 8 1 17 2 22c7 118 58 192 114 231c36 25 76 34 110 34c30 0 74 -13 103 -47c44 46 99 63 151 63c20 0 45 -10 62 -28c0 0 -3 -16 -15 -37c-11 -20 -29 -40 -29 -40l-103 50c-13 0 -61 -56 -70 -191l-5 -62l92 4s6 -12 5 -25
s-8 -24 -8 -24l-92 2l-26 -354c-7 -96 -56 -185 -116 -230c-35 -26 -74 -32 -108 -32c-29 0 -69 10 -99 38c-35 -35 -79 -52 -125 -52c-18 0 -36 10 -46 25c0 0 1 16 13 37c11 20 25 34 25 34l85 -40c9 3 37 33 46 168zM151 22c-5 -65 -20 -116 -43 -155
c23 -21 55 -38 87 -38c22 0 42 6 60 20c31 25 57 95 63 177l27 372h-167zM185 488l-4 -45h168l3 42c7 65 24 115 46 154c-22 26 -56 49 -90 49c-22 0 -39 -9 -57 -23c-27 -22 -57 -73 -66 -177z" />
    <glyph glyph-name=".notdef" horiz-adv-x="174" 
 />
    <glyph glyph-name="A" unicode="A" horiz-adv-x="580" 
d="M159 0h-211l3 35l61 16l260 649h79l166 -652v3l54 -16l-2 -35h-225l2 35l76 16l-48 212h-217l-81 -212l85 -16zM293 615l-118 -305h188z" />
    <glyph glyph-name="n" unicode="n" horiz-adv-x="512" 
d="M328 87l26 248c4 38 -25 46 -25 46c-31 0 -46 -6 -78 -32c-17 -14 -54 -54 -72 -75l-29 -274h-60c-7 8 -27 40 -27 111c0 66 47 157 47 157l3 122l-63 5l3 28s118 22 124 24c11 2 19 -9 16 -18l-27 -125c16 15 40 56 71 87c41 40 78 62 111 62c38 0 62 -11 75 -31
c13 -21 17 -48 13 -92c-6 -65 -31 -284 -31 -284l66 -15l-4 -34s-32 -4 -66 -4c-59 0 -80 28 -73 94z" />
    <glyph glyph-name="o" unicode="o" horiz-adv-x="438" 
d="M192 -12c-99 0 -165 59 -165 207c0 147 97 258 218 258c110 0 169 -48 169 -187c0 -145 -99 -278 -222 -278zM198 28c70 0 127 108 127 244c0 86 -36 143 -90 143c-64 0 -117 -94 -117 -228c0 -82 22 -159 80 -159z" />
    <glyph glyph-name="e" unicode="e" horiz-adv-x="377" 
d="M312 214c-14 -5 -155 -5 -198 -5v-28c0 -92 33 -131 85 -131c45 0 96 44 122 66l17 -39c-37 -42 -87 -89 -163 -89c-90 0 -147 70 -147 188c0 124 74 271 228 277c69 2 95 -54 99 -105c3 -38 -10 -94 -14 -110c-3 -12 -13 -21 -29 -24zM158 369c-21 -28 -35 -67 -41 -118
l175 15c0 46 -6 141 -69 140c-38 -2 -65 -37 -65 -37z" />
    <glyph glyph-name="h" unicode="h" horiz-adv-x="498" 
d="M195 750l-4 -3l8 3l-36 -433c15 19 36 50 60 74c41 40 85 62 118 62c38 0 62 -11 75 -31c13 -21 17 -48 13 -92c-6 -65 -31 -287 -31 -287l66 -15l-4 -34s-32 -4 -66 -4c-59 0 -80 28 -73 94l26 251c4 38 -25 46 -25 46c-31 0 -53 -6 -85 -32c-17 -14 -54 -55 -73 -75
l-24 -274h-61c-4 5 -25 41 -25 111c0 66 34 141 34 141h1l29 441l-59 7l2 31z" />
    <glyph glyph-name="s" unicode="s" horiz-adv-x="338" 
d="M143 20c20 0 44 10 57 23c19 18 27 36 27 56c0 33 -15 51 -82 95c-71 46 -99 83 -99 142c0 38 26 72 45 85c28 20 65 32 111 32c73 0 107 -32 117 -99c0 0 -10 -12 -27 -19c-16 -7 -38 -9 -38 -9l-28 88c-6 4 -16 6 -29 6c-17 0 -39 -8 -55 -21c-18 -14 -26 -30 -26 -46
c0 -31 17 -53 75 -90c71 -45 108 -87 108 -144c0 -45 -17 -77 -44 -97c-36 -26 -80 -34 -118 -34c-66 0 -109 35 -127 97c0 0 17 15 34 22c16 7 35 9 35 9l31 -88c4 -5 22 -8 33 -8z" />
    <glyph glyph-name="i" unicode="i" horiz-adv-x="259" 
d="M156 661c26 -2 46 -27 44 -57c-2 -29 -25 -53 -51 -51c-25 2 -45 28 -43 57c2 30 25 52 50 51zM74 90l29 298l-63 9l1 27l86 18c2 0 5 1 9 1c43 0 44 -32 40 -90l-24 -304l66 -15l-4 -34s-32 -4 -66 -4c-59 0 -80 32 -74 94z" />
    <glyph glyph-name="d" unicode="d" horiz-adv-x="465" 
d="M293 67l4 48c-30 -47 -81 -115 -131 -115c-85 0 -138 82 -138 198c0 121 64 205 127 240c24 14 45 15 63 15s79 -38 108 -56l17 296l-59 7l2 31l134 19l-52 -702l66 -15l-4 -34s-32 -4 -66 -4c-52 0 -74 32 -71 72zM178 65c34 0 93 60 122 93l14 172
c-17 13 -78 57 -134 77c-10 0 -67 -95 -67 -194c0 -69 17 -123 53 -145c4 -2 8 -3 12 -3z" />
    <glyph glyph-name="O" unicode="O" horiz-adv-x="640" 
d="M294 -12c-136 0 -274 90 -274 351c1 209 131 378 328 378c162 0 282 -81 282 -319c0 -235 -143 -410 -336 -410zM313 38c154 0 216 215 216 372c0 177 -70 263 -192 263c-116 0 -209 -120 -209 -350c0 -222 78 -285 185 -285z" />
    <glyph glyph-name="J" unicode="J" horiz-adv-x="295" 
d="M5 -189c-32 0 -58 6 -81 22c-24 16 -44 40 -52 65c0 0 13 20 37 29c23 9 46 5 46 5l36 -81c80 0 93 103 100 194l45 603l-71 19l2 33h234l-2 -32l-76 -18h-1l-48 -623c-6 -76 -22 -138 -70 -175c-34 -27 -64 -41 -99 -41z" />
    <glyph glyph-name="N" unicode="N" horiz-adv-x="661" 
d="M552 0h-49l-330 634l-30 -584l70 -15l-2 -35h-208l2 35l76 14l36 595l-69 21l2 35h183l279 -548l25 498l-76 15l2 35h204l-2 -35l-69 -15z" />
    <glyph glyph-name="H" unicode="H" horiz-adv-x="698" 
d="M79 50l45 600l-63 18l2 32h226l-2 -32l-76 -18h-1l-19 -268h322l20 268l-73 18l2 32h226l-2 -32l-66 -18h-1l-42 -600l66 -15l-4 -35h-230l2 32l77 18l21 282h-321l-20 -282l76 -15l-4 -35h-240l2 32z" />
    <glyph glyph-name="E" unicode="E" horiz-adv-x="548" 
d="M395 223h-32l-10 99l-165 6l-22 -291l272 13l42 120l33 -6l-16 -164h-497l2 32l77 18l45 600l-63 18l2 32h426l16 -162l-33 -6l-42 120l-218 13l-22 -299l163 6l20 94h39z" />
    <glyph glyph-name="I" unicode="I" 
d="M79 50l45 600l-63 18l2 32h226l-2 -32l-76 -18h-1l-42 -600l76 -15l-4 -35h-240l2 32z" />
    <glyph glyph-name="zero" unicode="0" horiz-adv-x="479" 
d="M214 -12c-92 0 -167 97 -167 215c0 170 95 251 219 251c80 0 163 -64 163 -194c0 -166 -81 -272 -215 -272zM226 29c77 0 112 80 112 213c0 113 -20 174 -84 174c-57 0 -112 -47 -112 -187c0 -117 22 -200 84 -200z" />
    <glyph glyph-name="m" unicode="m" horiz-adv-x="742" 
d="M193 429l-28 -129c14 5 42 54 79 91c41 40 78 62 111 62c58 0 73 -43 74 -115c12 17 27 36 44 53c41 40 78 62 111 62c36 0 58 -14 68 -31c13 -21 17 -48 13 -92c-6 -65 -31 -287 -31 -287l66 -15l-4 -34s-32 -4 -66 -4c-59 0 -80 28 -73 94l26 251c4 38 -20 46 -20 46
c-29 0 -44 -6 -76 -32c-15 -12 -46 -46 -66 -68l-29 -281h-60c-7 8 -13 40 -13 111c0 66 33 157 33 157s5 31 5 67c0 38 -19 46 -19 46c-33 0 -48 -6 -80 -32c-19 -16 -68 -68 -80 -82l-28 -267h-60c-7 8 -27 40 -27 111c0 66 47 157 47 157l3 122l-63 5l1 28s120 22 126 24
c11 2 19 -9 16 -18z" />
    <glyph glyph-name="space" unicode=" " horiz-adv-x="174" 
 />
    <glyph glyph-name="y" unicode="y" horiz-adv-x="444" 
d="M-5 -88l51 -94c28 12 54 41 88 91c14 21 29 45 44 71c-19 145 -75 378 -122 420l-46 -1l-2 29s51 25 82 25c35 0 58 -23 74 -71c25 -81 46 -212 56 -319c1 3 2 7 4 10c33 80 80 205 130 375c0 0 25 1 50 -6c23 -7 32 -18 32 -18c-64 -173 -133 -325 -194 -433
c-101 -179 -170 -215 -216 -215c-29 0 -96 33 -102 87c0 0 16 17 34 30c17 12 37 19 37 19z" />
    <glyph glyph-name="S" unicode="S" horiz-adv-x="489" 
d="M460 609l-4 -125l-33 -6l-38 121c-21 46 -62 71 -114 71c-66 0 -124 -46 -124 -120c0 -38 31 -66 133 -128c110 -67 158 -123 158 -241c0 -65 -30 -108 -62 -137c-42 -38 -97 -56 -164 -56c-46 0 -98 17 -139 48l-26 -33s-7 1 -14 5c-7 3 -13 10 -13 10l4 72l8 136l33 6
l38 -136c20 -37 79 -60 118 -60c40 0 72 15 94 41c20 23 34 49 34 88c0 71 -38 120 -123 172c-122 74 -168 123 -168 205c0 117 102 175 220 175c58 0 102 -17 135 -45l21 32s8 -1 15 -5s12 -9 12 -9z" />
    <glyph glyph-name="l" unicode="l" horiz-adv-x="235" 
d="M62 89l47 603l-59 7l2 31l134 20l-52 -702l66 -15l-4 -34s-27 -4 -61 -4c-59 0 -79 22 -73 94z" />
    <glyph glyph-name="u" unicode="u" horiz-adv-x="468" 
d="M306 159l34 288s17 6 31 6c16 0 29 -6 29 -6c7 -9 17 -31 11 -102c-6 -66 -34 -149 -34 -149l-9 -139l62 -6l-1 -28l-112 -22c-11 -2 -17 9 -16 18l17 109c-12 -20 -33 -53 -53 -73c-43 -44 -73 -61 -111 -61c-27 0 -53 17 -68 37c-19 25 -26 62 -20 113l30 259l-67 9
l2 27s72 13 98 13c34 0 49 -37 44 -90l-28 -251c-3 -25 10 -47 24 -52c31 0 51 12 83 38c11 9 37 41 54 62z" />
    <glyph glyph-name="r" unicode="r" horiz-adv-x="306" 
d="M163 429c-3 -21 -19 -118 -19 -118l3 3c22 44 50 92 69 110c25 21 33 31 68 31c18 0 31 -8 41 -24c0 0 -2 -23 -12 -40c-10 -19 -29 -30 -29 -30l-47 24c-12 -2 -41 -46 -62 -85l-32 -300h-60c-7 8 -27 40 -27 111c0 66 47 157 47 157l-7 123l-53 4l3 28s95 22 101 24
c11 2 17 -9 16 -18z" />
    <glyph glyph-name="p" unicode="p" horiz-adv-x="453" 
d="M186 -220h-208l2 35l63 13l46 562l-66 7l3 28s110 20 116 22c11 2 19 -9 16 -18l-26 -124c15 15 40 55 71 86c41 40 78 62 109 62c67 0 112 -59 112 -187c0 -69 -48 -168 -67 -193c-26 -34 -59 -78 -140 -78c-31 0 -59 7 -83 18l-14 -184l68 -14zM228 35
c32 0 52 14 76 61c15 30 35 84 35 164c0 90 -25 110 -42 121c-27 0 -55 -11 -80 -32c-15 -12 -44 -43 -64 -64l-14 -200c22 -25 58 -50 89 -50z" />
    <glyph glyph-name="g" unicode="g" horiz-adv-x="425" 
d="M194 136c-16 0 -30 1 -44 4c-9 -18 -19 -58 -8 -66c6 -4 28 -10 40 -12c30 -6 95 -15 117 -22c35 -11 60 -19 79 -44c14 -19 17 -41 17 -65c0 -47 -28 -75 -68 -105c-32 -24 -76 -40 -148 -40c-41 0 -144 25 -176 55c-20 18 -39 47 -39 74c0 30 14 57 30 75
c20 23 53 44 89 57c-2 8 -3 17 -3 28c0 39 16 66 31 81c-35 21 -56 61 -56 123c0 97 84 174 176 174c41 0 74 -7 99 -23c5 9 10 17 16 25c25 30 42 38 63 41c19 3 30 0 45 -11c0 0 0 -15 -7 -37c-8 -20 -19 -38 -19 -38l-57 16c-8 -3 -14 -7 -20 -14c18 -20 28 -48 28 -86
c0 -99 -83 -190 -185 -190zM195 -9c-35 7 -76 16 -91 23c-16 -7 -31 -15 -43 -26c-14 -12 -27 -25 -27 -53c0 -17 9 -35 23 -48c37 -34 186 -53 186 -53c17 5 38 13 54 28c17 15 31 33 31 53c0 21 -3 42 -25 52c-6 3 -68 16 -108 24zM195 177c40 -4 107 47 109 132
c1 45 -14 99 -70 104c-39 3 -95 -41 -101 -119c-2 -55 14 -113 62 -117z" />
    <glyph glyph-name="f" unicode="f" horiz-adv-x="279" 
d="M275 396l-92 2l-10 -138l-19 -253c-10 -130 -68 -237 -192 -237c-27 0 -50 16 -58 26c0 0 -2 18 9 38s20 30 20 30l96 -45c10 0 36 34 46 169l21 277l10 132h-90l2 27l92 22l3 39c24 203 135 265 233 265c20 0 41 -8 58 -26c0 0 2 -21 -10 -42c-11 -20 -28 -30 -28 -30
l-99 47c-33 -12 -67 -77 -76 -195l-5 -61l92 4s6 -12 5 -25s-8 -26 -8 -26z" />
    <glyph glyph-name="D" unicode="D" horiz-adv-x="643" 
d="M266 700c282 0 347 -160 347 -303c0 -211 -100 -397 -393 -397h-220l2 32l86 18l44 600l-72 18l2 32h204zM220 650l-44 -600h104c146 33 232 106 232 321c0 182 -62 279 -292 279z" />
    <glyph glyph-name="G" unicode="G" horiz-adv-x="656" 
d="M320 -12c-177 0 -298 110 -298 352c0 228 164 377 358 377c57 0 115 -19 157 -46l30 31s8 -2 15 -6c6 -5 11 -10 11 -10l-5 -66l-11 -153l-32 -4l-42 141c-14 35 -89 69 -134 69c-140 0 -239 -126 -239 -342c0 -192 68 -293 209 -293c43 0 94 20 121 56l12 166l-1 -2
l-85 11l1 39h242l-2 -35l-68 -15l-12 -183c-50 -54 -126 -87 -227 -87z" />
    <glyph glyph-name="L" unicode="L" horiz-adv-x="459" 
d="M276 668l-66 -18l-43 -610l224 11l41 119l33 -6l-16 -164h-449l2 32l77 18l45 600l-63 18l2 32h215z" />
    <glyph glyph-name="T" unicode="T" horiz-adv-x="573" 
d="M537 531l-26 121l-166 13l-46 -615l63 -18l-2 -32h-215l2 32l65 18l43 600l1 15l-165 -14l-48 -120l-33 6l24 163h539v-53h-1l-2 -110z" />
    <glyph glyph-name="F" unicode="F" horiz-adv-x="505" 
d="M211 665l-21 -299l143 6l20 94h39l-17 -243h-32l-10 99l-145 6l-21 -278l63 -18l-2 -32h-228l2 32l77 18l45 600l-63 18l2 32h426l16 -164l-33 -6l-46 121z" />
    <glyph glyph-name="t" unicode="t" horiz-adv-x="282" 
d="M265 64c-39 -44 -71 -70 -106 -70c-30 0 -54 15 -69 36s-21 56 -16 114l24 253h-81l2 27l84 21l14 91l65 12l-8 -105l106 4s6 -12 5 -25s-8 -26 -8 -26l-106 2l-21 -288c-2 -31 7 -49 26 -57c26 0 52 18 79 38z" />
    <glyph glyph-name="two" unicode="2" horiz-adv-x="415" 
d="M5 0l-2 32l177 145c47 43 94 85 94 135c0 85 -55 89 -86 89c-40 0 -75 -19 -107 -38l-17 26c10 10 29 25 43 34c22 14 59 30 114 30c89 0 134 -35 134 -122c0 -56 -36 -95 -82 -134l-163 -135l208 14l30 49l25 -12l-19 -113h-349z" />
    <glyph glyph-name="three" unicode="3" horiz-adv-x="418" 
d="M188 402c-39 0 -76 -19 -109 -38l-19 21c9 9 29 29 44 37c27 14 64 31 113 31c68 0 125 -34 125 -121c0 -64 -72 -108 -95 -121c41 -14 111 -50 111 -146c0 -163 -175 -257 -258 -257c-66 0 -109 16 -132 51c0 0 8 18 24 35s34 24 34 24l91 -65c92 18 157 91 157 187
c0 63 -52 115 -111 126c0 0 -44 -10 -63 -15l-10 35c66 21 172 65 172 121c0 74 -38 95 -74 95z" />
    <glyph glyph-name="four" unicode="4" horiz-adv-x="490" 
d="M413 33h-66l-13 -213l-81 -6l21 219h-251l-2 31l295 391l66 -10l-31 -351h74zM97 94h187l25 281z" />
    <glyph glyph-name="five" unicode="5" horiz-adv-x="463" 
d="M94 140l40 305l274 7l-11 -79l-217 13l-24 -164s21 8 54 8c86 0 189 -53 189 -164c0 -149 -141 -258 -283 -258c-58 0 -100 19 -115 51c0 0 8 14 25 33c16 18 32 27 32 27l72 -70c106 7 186 89 186 187c0 69 -48 116 -130 116c-41 0 -68 -4 -92 -12z" />
    <glyph glyph-name="six" unicode="6" horiz-adv-x="472" 
d="M426 639l4 -39c-92 -35 -154 -100 -200 -153c-23 -26 -45 -68 -60 -115c41 24 94 48 133 48c67 0 118 -41 118 -169c0 -120 -92 -223 -192 -223c-110 0 -171 74 -171 225c0 109 68 225 122 280c65 66 170 128 246 146zM150 236c-9 -101 -3 -208 70 -212
c37 -2 108 24 116 154c8 131 -35 145 -35 145c-39 3 -94 -11 -143 -34c-4 -17 -7 -35 -8 -53z" />
    <glyph glyph-name="seven" unicode="7" horiz-adv-x="459" 
d="M59 334l13 113h339l18 -76c-49 -58 -108 -159 -159 -255s-96 -197 -118 -282l-99 -40l-19 14l324 576l-244 -13l-30 -49z" />
    <glyph glyph-name="one" unicode="1" horiz-adv-x="325" 
d="M142 395l-59 7l2 31l134 20l-30 -405l66 -15l-4 -33h-208l4 33l66 15z" />
    <glyph glyph-name="V" unicode="V" horiz-adv-x="574" 
d="M624 700l-2 -32l-62 -18l-255 -650h-79l-162 650l-54 18l2 32h232l-3 -32v-3l-76 -15l125 -545l202 545l-85 18l2 32h215z" />
    <glyph glyph-name="Y" unicode="Y" horiz-adv-x="570" 
d="M145 32l66 18l22 251l-159 350l-64 14l2 35h236l-3 -35l-70 -15l120 -286v-3l162 289l-85 15l2 35h224l-2 -35l-63 -14l-217 -352l-19 -249l63 -18l-2 -32h-215z" />
    <glyph glyph-name="M" unicode="M" horiz-adv-x="816" 
d="M382 -4h-31l-167 647l-48 -595l2 2l70 -15l-2 -35h-210l2 35l77 14l54 594l-77 22l3 35h205l134 -545l231 545h196l-2 -35l-79 -21h-1l-36 -594l72 -15l-2 -35h-239l2 35l76 15l45 593z" />
    <glyph glyph-name="eight" unicode="8" horiz-adv-x="502" 
d="M69 152c0 75 89 152 133 172c-44 36 -81 77 -81 142c0 110 77 169 177 169c102 0 156 -45 156 -140c0 -70 -76 -140 -119 -166c49 -36 93 -80 93 -158c0 -110 -92 -183 -192 -183c-120 0 -167 63 -167 164zM345 138c8 78 -54 119 -115 165c-41 -29 -68 -84 -73 -128
c-8 -76 8 -143 70 -151c46 -6 108 15 118 114zM204 499c-10 -74 44 -110 101 -149c26 23 54 70 61 122c7 57 9 123 -59 127c-37 2 -92 -15 -103 -100z" />
    <glyph glyph-name="nine" unicode="9" horiz-adv-x="489" 
d="M69 -201l-4 36c109 43 151 99 197 160c18 27 38 71 53 121c-36 -25 -78 -50 -114 -50c-64 -4 -138 33 -142 161c0 120 88 226 193 227c108 4 170 -63 170 -214c4 -109 -60 -229 -111 -291c-65 -73 -147 -126 -242 -150zM334 217c5 101 -5 199 -78 201
c-37 2 -104 -24 -112 -158c-3 -120 41 -127 69 -138c34 -3 74 13 112 35c4 20 7 40 9 60z" />
    <glyph glyph-name="U" unicode="U" horiz-adv-x="613" 
d="M434 668l2 32h202l-2 -32l-71 -20h-1l-39 -404c-7 -68 -24 -151 -62 -189c-49 -49 -113 -68 -177 -68c-81 0 -132 18 -170 54c-44 41 -58 105 -54 181l31 428l-63 18l2 32h227l-2 -32l-76 -18l-26 -412c-3 -126 33 -192 143 -192c51 0 92 12 122 50c29 36 42 79 49 152
c4 43 23 315 28 402z" />
    <glyph glyph-name="Z" unicode="Z" horiz-adv-x="494" 
d="M-3 32l409 630l-287 -18l-45 -112l-33 6l25 162h438l2 -32l-397 -626l298 17l46 111l33 -6l-26 -164h-465z" />
    <glyph glyph-name="period" unicode="." horiz-adv-x="213" 
d="M79 108c30 -2 54 -30 51 -63c-2 -33 -29 -60 -58 -57c-30 2 -53 31 -50 63c2 34 29 59 57 57z" />
    <glyph glyph-name="j" unicode="j" horiz-adv-x="254" 
d="M163 660c26 -2 46 -27 44 -57c-2 -29 -25 -53 -51 -51c-25 2 -45 28 -43 57c2 30 25 52 50 51zM183 352l-23 -345c-10 -130 -68 -237 -192 -237c-27 0 -50 16 -58 26c0 0 0 9 12 30c11 20 23 35 23 35l90 -42c10 0 36 34 46 169l29 400l-62 9l1 27l86 18c3 1 5 1 9 1
c41 0 42 -31 39 -91z" />
    <glyph glyph-name="v" unicode="v" horiz-adv-x="408" 
d="M302 141c-56 -107 -86 -153 -117 -153c-43 0 -64 22 -69 71c-6 56 -41 339 -41 339l-67 9l1 31s72 13 98 13c41 0 58 -41 61 -102l19 -312c9 4 29 33 76 150c19 48 61 168 80 265c0 0 24 4 48 -4c25 -8 34 -19 34 -19c-35 -98 -75 -196 -123 -288z" />
    <glyph glyph-name="R" unicode="R" horiz-adv-x="557" 
d="M79 50l45 600l-63 18l2 32h238c117 0 212 -46 212 -172c0 -125 -82 -177 -178 -187c41 -4 90 -29 109 -93l57 -197l61 -18l-4 -33h-144l-62 275c-7 31 -50 44 -91 45l-75 1l-19 -271l76 -15l-4 -35h-239l2 32zM306 661h-96l-22 -296c26 0 79 2 109 3c67 1 121 45 126 141
s-41 144 -117 152z" />
    <glyph glyph-name="P" unicode="P" horiz-adv-x="518" 
d="M79 50l45 600l-63 18l2 32h230c110 0 215 -26 215 -177c0 -148 -94 -233 -198 -233c-51 0 -94 10 -124 21l-18 -261l76 -15l-4 -35h-240l2 32zM298 661h-87l-22 -308c37 -10 83 -14 117 -14c70 17 103 61 111 165c7 89 -37 144 -119 157z" />
    <glyph glyph-name="b" unicode="b" horiz-adv-x="451" 
d="M178 750l-31 -418c12 17 27 36 44 53c41 40 78 62 109 62c61 0 112 -54 112 -187c0 -69 -40 -168 -60 -194c-26 -34 -59 -78 -147 -78c-63 0 -121 19 -157 51l51 653l-59 7l2 31zM205 343c-14 -11 -42 -42 -62 -63l-16 -211c20 -28 54 -41 89 -41c32 0 57 13 81 60
c15 30 30 86 30 166c0 90 -42 121 -42 121c-27 0 -55 -11 -80 -32z" />
    <glyph glyph-name="q" unicode="q" horiz-adv-x="442" 
d="M396 441l-52 -611l69 -15l-2 -35h-208l2 35l63 13l24 276c-30 -44 -83 -108 -128 -108c-66 0 -132 61 -132 202c0 127 71 212 138 243c15 7 44 12 60 12c18 0 74 -22 102 -33c13 9 30 29 39 29c12 0 25 -8 25 -8zM166 64c2 -1 4 -2 9 -2c24 0 73 33 121 86l17 199
c-36 23 -83 49 -128 61c-10 0 -69 -98 -69 -198c0 -73 13 -128 50 -146z" />
    <glyph glyph-name="c" unicode="c" horiz-adv-x="378" 
d="M247 415c-24 0 -54 -16 -77 -42c-28 -31 -52 -85 -52 -161c0 -80 7 -133 48 -156c8 -5 19 -7 28 -7c40 0 85 25 133 82l25 -27c-34 -54 -98 -116 -182 -116c-74 0 -139 52 -139 209c0 113 55 185 111 224c26 18 64 32 110 32c73 0 113 -41 120 -102c0 0 -12 -18 -29 -25
c-19 -8 -43 -7 -43 -7l-27 91c-5 3 -13 5 -26 5z" />
    <glyph glyph-name="Igrave" unicode="&#xcc;" 
d="M79 50l45 600l-63 18l2 32h226l-2 -32l-76 -18h-1l-42 -600l76 -15l-4 -35h-240l2 32zM223 771c-6 -8 -13 -10 -13 -10s-172 105 -189 118c0 0 0 18 14 38c13 18 32 24 32 24c22 -17 162 -153 162 -153s-1 -10 -6 -17z" />
    <glyph glyph-name="k" unicode="k" horiz-adv-x="441" 
d="M354 43l58 7l-3 -38c-17 -13 -43 -24 -77 -24c-39 0 -58 27 -67 67l-25 121c-9 40 -27 56 -57 56h-37l-17 -232h-74l54 692l-59 7l2 31l134 20l-42 -478h15c21 34 55 77 74 97c47 56 102 84 143 84c27 0 47 -16 56 -38c0 0 -4 -22 -15 -37s-32 -25 -32 -25l-46 33
c-16 -6 -36 -16 -61 -37c-21 -17 -51 -47 -75 -77c48 -1 74 -16 99 -80z" />
    <glyph glyph-name="K" unicode="K" horiz-adv-x="571" 
d="M210 650h-1l-22 -315l280 315l-67 15l2 35h199l-2 -35l-60 -15l-241 -254l205 -343l62 -18l-4 -35h-228l4 35l62 15l1 -1l-149 298l-68 -71l-16 -226l61 -15l-4 -35h-224l2 32l77 18l45 600l-63 18l2 32h221l-2 -32z" />
    <glyph glyph-name="B" unicode="B" horiz-adv-x="546" 
d="M79 50l45 600l-63 18l2 32h232c97 0 212 -30 212 -177c0 -97 -51 -144 -119 -163c68 -22 126 -74 126 -178c0 -145 -103 -182 -212 -182h-302l2 32zM307 334h-121l-21 -294h127c77 0 132 34 132 138c0 99 -55 150 -117 156zM300 661h-90l-21 -287l102 3
c67 1 121 31 126 127c5 101 -46 150 -117 157z" />
    <glyph glyph-name="C" unicode="C" horiz-adv-x="607" 
d="M320 -12c-177 0 -298 110 -298 342c0 238 164 387 358 387c57 0 115 -19 157 -46l25 29s8 -1 15 -5s12 -9 12 -9l-1 -66l-9 -151l-38 -5l-39 139c-14 35 -88 70 -133 70c-140 0 -239 -126 -239 -352c0 -182 68 -283 209 -283c43 0 103 29 126 57l55 142l33 -6l-23 -164
c-47 -48 -125 -79 -210 -79z" />
    <glyph glyph-name="Q" unicode="Q" horiz-adv-x="640" 
d="M643 -112l13 -37c-32 -34 -83 -64 -153 -64c-69 0 -135 28 -172 62c-34 32 -72 77 -87 144c-118 20 -224 116 -224 346c1 209 131 378 328 378c162 0 282 -81 282 -319c0 -224 -131 -386 -303 -407h-4c38 -75 131 -126 218 -126c42 0 75 6 102 23zM313 38
c154 0 216 215 216 372c0 177 -70 263 -192 263c-116 0 -209 -120 -209 -350c0 -222 78 -285 185 -285z" />
    <glyph glyph-name="W" unicode="W" horiz-adv-x="815" 
d="M230 0h-46l-110 652l-1 -2l-73 15l2 35h237l-2 -35l-73 -15l79 -509l167 405l-18 105v-1l-76 15l2 35h244l-2 -35l-80 -15l77 -500l175 500l-76 15l2 35h204l-2 -35l-63 -15l-249 -650h-46l-77 455z" />
    <glyph glyph-name="X" unicode="X" horiz-adv-x="544" 
d="M471 50l63 -18l-2 -32h-234l2 32l64 17l-115 257l-160 -257l77 -14l-2 -35h-217l2 35l70 15l1 -1l209 300l-135 301l-73 15l2 35h243l-2 -35l-75 -15l114 -244l145 244l-78 15l2 35h210l-2 -35l-63 -15l-196 -282l149 -320z" />
    <glyph glyph-name="w" unicode="w" horiz-adv-x="609" 
d="M388 -12c-41 0 -52 22 -60 71l-17 100c-2 -6 -6 -13 -9 -20c-66 -125 -94 -151 -116 -151c-44 0 -65 22 -70 71c-6 56 -41 339 -41 339l-67 9l1 31s69 13 95 13c41 0 60 -41 61 -102l22 -312c10 1 51 65 83 147c10 25 18 47 26 69c-5 40 -9 85 -9 121c0 41 15 72 38 72
c20 0 30 -2 40 -9c13 -9 23 -27 23 -49c0 -36 -14 -78 -29 -113l31 -238c9 4 21 33 68 150c22 55 60 167 82 265c0 0 16 4 40 -4c25 -8 35 -21 35 -21c-25 -99 -69 -198 -116 -288c-56 -107 -85 -151 -111 -151z" />
    <glyph glyph-name="question" unicode="?" horiz-adv-x="408" 
d="M262 208v-34c-4 -4 -18 -10 -29 -10c-37 0 -74 10 -96 28c-19 16 -35 37 -35 75c0 42 33 85 125 165c51 45 93 88 93 157c0 53 -54 93 -108 93c-19 0 -31 -4 -40 -10l-26 -89s-24 -5 -47 4c-27 10 -34 28 -34 28c13 47 60 102 146 102c104 0 186 -47 186 -151
c0 -84 -52 -132 -142 -202c-62 -48 -88 -67 -88 -99c0 -19 5 -26 8 -31c0 0 28 -29 66 -29c9 0 21 3 21 3zM168 108c30 -2 54 -30 51 -63c-2 -33 -29 -60 -58 -57c-30 2 -53 31 -50 63c2 34 29 59 57 57z" />
    <glyph glyph-name="numbersign" unicode="#" horiz-adv-x="500" 
d="M71 -7c0 0 19 267 30 404h-90l2 27l92 23c0 8 1 17 2 22c7 118 58 192 114 231c36 25 76 34 110 34c30 0 74 -13 103 -47c44 46 99 63 151 63c20 0 45 -10 62 -28c0 0 -3 -16 -15 -37c-11 -20 -29 -40 -29 -40l-103 50c-13 0 -61 -56 -70 -191l-5 -62l94 4l-3 -49l-94 2
l-26 -354c-7 -96 -56 -185 -116 -230c-35 -26 -74 -32 -108 -32c-29 0 -69 10 -99 38c-35 -35 -79 -52 -125 -52c-18 0 -36 10 -46 25c0 0 1 16 13 37c11 20 25 34 25 34l85 -40c9 3 37 33 46 168zM151 22c-5 -65 -20 -116 -43 -155c23 -21 55 -38 87 -38c22 0 42 6 60 20
c31 25 57 95 63 177l27 372h-167zM185 488l-4 -45h168l3 42c7 65 24 115 46 154c-22 26 -56 49 -90 49c-22 0 -39 -9 -57 -23c-27 -22 -57 -73 -66 -177z" />
    <glyph glyph-name="colon" unicode=":" horiz-adv-x="233" 
d="M108 109c29 -2 54 -31 50 -64c-2 -32 -28 -59 -58 -57s-53 32 -50 64c2 34 29 58 58 57zM127 414c29 -2 54 -31 51 -64c-2 -33 -29 -59 -59 -57c-29 2 -53 32 -49 64c2 34 28 58 57 57z" />
    <glyph glyph-name="hyphen" unicode="-" horiz-adv-x="316" 
d="M40 236l8 61h227l-8 -61h-227z" />
    <glyph glyph-name="endash" unicode="&#x2013;" horiz-adv-x="473" 
d="M40 236l8 61h378l-8 -61h-378z" />
    <glyph glyph-name="emdash" unicode="&#x2014;" horiz-adv-x="844" 
d="M40 236l8 61h755l-8 -61h-755z" />
    <glyph glyph-name="bar" unicode="|" horiz-adv-x="228" 
d="M86 -220v1014h64v-1014h-64z" />
    <glyph glyph-name="comma" unicode="," horiz-adv-x="170" 
d="M6 -109l56 113c-15 7 -39 23 -39 50c0 33 21 54 44 54c30 0 57 -17 57 -52c0 -21 -6 -39 -10 -51c-12 -31 -66 -108 -84 -119z" />
    <glyph glyph-name="x" unicode="x" horiz-adv-x="376" 
d="M99 26c-22 -26 -40 -38 -62 -38c-20 -1 -43 14 -52 34c0 0 1 17 14 35s26 24 26 24l32 -21c18 8 41 40 59 71c12 21 26 46 40 75l-60 189l-73 -8v36s52 31 94 30c36 -1 52 -48 70 -104l16 -51c16 39 44 92 71 120c23 26 43 36 65 36c21 1 42 -15 51 -35
c0 0 -1 -13 -12 -31c-12 -19 -27 -25 -27 -25l-34 20c-18 -8 -42 -40 -60 -70c-12 -18 -26 -43 -38 -66l64 -202l72 18l2 -33s-42 -43 -88 -42c-31 1 -51 24 -66 73l-30 94c-15 -39 -45 -98 -74 -129z" />
    <glyph glyph-name="z" unicode="z" horiz-adv-x="368" 
d="M268 29l-11 74s18 15 39 19c22 7 40 3 40 3c6 -18 6 -50 0 -72c-16 -57 -54 -65 -106 -65c-45 0 -103 16 -155 37c-1 -1 -2 -2 -2 -3l-39 -34l-29 22l252 337c-38 25 -95 62 -140 62l3 -66s-18 -15 -39 -19c-22 -7 -40 -3 -40 -3c-5 16 -6 41 0 63c13 52 55 66 106 66
s108 -14 157 -30l1 4l42 31l29 -23l-81 -107l-172 -227c38 -27 98 -69 145 -69z" />
    <glyph glyph-name="semicolon" unicode=";" horiz-adv-x="233" 
d="M34 -109l56 114c-15 6 -39 22 -39 50c0 33 21 54 44 54c30 0 57 -17 57 -52c0 -21 -6 -39 -10 -51c-12 -32 -66 -108 -84 -120zM126 414h1c29 -2 54 -31 51 -64c-2 -33 -29 -59 -59 -57s-53 32 -50 64c1 20 12 38 26 48l10 5c2 1 5 2 7 2l8 2h6z" />
    <glyph glyph-name="quoteleft" unicode="&#x2018;" horiz-adv-x="202" 
d="M185 749l-56 -114c15 -6 39 -22 39 -49c0 -33 -19 -50 -44 -50c-30 0 -55 18 -55 48c0 21 4 39 8 50c12 32 66 109 84 120z" />
    <glyph glyph-name="quoteright" unicode="&#x2019;" horiz-adv-x="173" 
d="M66 536l56 114c-15 6 -39 22 -39 49c0 33 19 50 44 50c30 0 55 -18 55 -48c0 -21 -4 -39 -8 -50c-12 -32 -66 -109 -84 -120z" />
    <glyph glyph-name="quotesingle" unicode="'" horiz-adv-x="173" 
d="M103 530c-10 -1 -17 4 -17 4c6 71 11 149 11 208c0 0 20 9 42 6c24 -3 34 -16 34 -16c-14 -62 -34 -133 -53 -195c0 0 -7 -6 -17 -7z" />
    <glyph glyph-name="quotedblright" unicode="&#x201d;" horiz-adv-x="320" 
d="M66 536l56 114c-15 6 -39 22 -39 49c0 33 19 50 44 50c30 0 56 -18 56 -48c0 -21 -5 -39 -9 -50c-12 -32 -66 -109 -84 -120zM212 536l57 114c-15 6 -40 22 -40 49c0 33 19 50 45 50c30 0 55 -18 55 -48c0 -21 -4 -39 -8 -50c-12 -32 -66 -109 -84 -120z" />
    <glyph glyph-name="quotedblleft" unicode="&#x201c;" horiz-adv-x="349" 
d="M186 749l-57 -114c15 -6 40 -22 40 -49c0 -33 -19 -50 -45 -50c-30 0 -55 18 -55 48c0 21 4 39 8 50c12 32 66 109 84 120zM332 749l-56 -114c15 -6 39 -22 39 -49c0 -33 -19 -50 -44 -50c-30 0 -56 18 -56 48c0 21 5 39 9 50c12 32 66 109 84 120z" />
    <glyph glyph-name="bracketright" unicode="]" horiz-adv-x="290" 
d="M165 -170h-140l3 35l69 11l63 819l-78 10l2 35l149 1z" />
    <glyph glyph-name="bracketleft" unicode="[" 
d="M139 741h145l-3 -35l-74 -11l-63 -819l73 -10l-2 -35l-144 -1z" />
    <glyph glyph-name="parenleft" unicode="(" horiz-adv-x="341" 
d="M371 721c-119 -100 -202 -292 -202 -473c0 -220 23 -299 103 -409l-23 -34c-110 86 -155 247 -154 417c1 232 102 423 250 528z" />
    <glyph glyph-name="parenright" unicode=")" horiz-adv-x="312" 
d="M-32 -165c117 98 203 292 203 473c0 220 -25 300 -104 409l22 33c110 -86 157 -246 156 -416c-1 -232 -102 -424 -250 -529z" />
    <glyph glyph-name="exclam" unicode="!" horiz-adv-x="268" 
d="M117 154c-12 1 -23 10 -23 10l10 542s22 12 55 11c31 -1 51 -17 51 -17l-70 -539s-11 -8 -23 -7zM112 102c28 -2 51 -29 48 -60c-2 -29 -23 -51 -48 -54h-7h-2c-28 3 -49 30 -46 60c2 32 27 55 54 54h1z" />
    <glyph glyph-name="asterisk" unicode="*" horiz-adv-x="280" 
d="M152 595l1 111s15 5 29 2c15 -2 27 -10 27 -10l-36 -107l101 57s11 -10 17 -25c5 -14 4 -27 4 -27l-115 -25l97 -56s-5 -14 -15 -26c-9 -11 -21 -17 -21 -17l-75 83l-1 -116s-14 -5 -29 -2s-26 10 -26 10l36 112l-99 -56s-10 11 -16 26c-4 13 -4 26 -4 26l110 23l-99 60
s4 15 14 27c9 11 22 17 22 17z" />
    <glyph glyph-name="quotedbl" unicode="&#x22;" horiz-adv-x="313" 
d="M103 530c-10 -1 -17 4 -17 4c6 71 11 149 11 208c0 0 20 9 42 6c24 -3 34 -16 34 -16c-14 -62 -34 -133 -53 -195c0 0 -7 -6 -17 -7zM243 530c-10 -1 -17 4 -17 4c6 71 11 149 11 208c0 0 20 9 42 6c24 -3 34 -16 34 -16c-14 -62 -34 -133 -53 -195c0 0 -7 -6 -17 -7z
" />
    <glyph glyph-name="slash" unicode="/" horiz-adv-x="287" 
d="M15 -135l232 861h61l-234 -861h-59z" />
    <glyph glyph-name="backslash" unicode="\" horiz-adv-x="332" 
d="M252 -135l-225 861h61l223 -861h-59z" />
    <glyph glyph-name="ellipsis" unicode="&#x2026;" horiz-adv-x="665" 
d="M79 108c30 -2 54 -30 51 -63c-2 -33 -29 -60 -58 -57c-30 2 -53 31 -50 63c2 34 29 59 57 57zM305 108c30 -2 54 -30 51 -63c-2 -33 -29 -60 -58 -57c-30 2 -53 31 -50 63c2 34 29 59 57 57zM531 108c30 -2 54 -30 51 -63c-2 -33 -29 -60 -58 -57c-30 2 -53 31 -50 63
c2 34 29 59 57 57z" />
    <glyph glyph-name="agrave" unicode="&#xe0;" horiz-adv-x="460" 
d="M363 49l66 -15l-4 -34s-32 -4 -66 -4c-52 0 -73 31 -70 71l3 40c-28 -43 -84 -115 -127 -115c-62 0 -128 65 -128 206c0 127 71 212 138 243c15 7 44 12 60 12c19 0 71 -21 98 -32c13 9 30 28 38 28c12 0 25 -8 25 -8zM166 59c2 -1 4 -2 9 -2c25 0 72 38 121 93l18 200
c-36 22 -81 47 -124 58c-10 0 -69 -98 -69 -198c0 -73 12 -136 45 -151zM315 520c-6 -8 -13 -10 -13 -10s-172 105 -189 118c0 0 0 18 14 38c13 18 32 24 32 24c22 -17 162 -153 162 -153s-1 -10 -6 -17z" />
    <glyph glyph-name="braceleft" unicode="{" horiz-adv-x="394" 
d="M325 -178h-35c-49 0 -151 45 -118 282c15 110 12 158 -7 182c-1 -1 -2 -1 -3 -1c-15 -4 -38 -12 -66 -12c-32 0 -56 14 -56 37c0 32 26 43 55 43c21 0 38 -8 72 -32c30 14 43 57 53 183c17 215 98 260 164 260h17l-4 -31c-7 0 -16 -2 -23 -4c-42 -11 -67 -80 -76 -206
c-6 -82 -29 -178 -92 -217c-3 -2 -5 -4 -8 -5c53 -52 58 -141 44 -236c-20 -137 18 -196 46 -204c11 -3 30 -7 42 -8z" />
    <glyph glyph-name="braceright" unicode="}" horiz-adv-x="431" 
d="M102 764h35c49 0 151 -45 118 -282c-15 -103 -12 -156 7 -182c1 0 2 1 3 1c15 4 38 12 66 12c32 0 56 -14 56 -37c0 -27 -30 -42 -58 -42s-50 16 -74 30c-26 -14 -38 -56 -48 -182c-18 -227 -98 -260 -164 -260h-17l4 31c7 0 16 2 23 4c49 13 66 63 76 206
c6 82 38 187 92 217l8 5c-53 52 -61 120 -44 236c20 138 -19 194 -46 204c-11 4 -30 9 -42 10z" />
    <glyph glyph-name="aacute" unicode="&#xe1;" horiz-adv-x="460" 
d="M363 49l66 -15l-4 -34s-32 -4 -66 -4c-52 0 -73 31 -70 71l3 40c-28 -43 -84 -115 -127 -115c-62 0 -128 65 -128 206c0 127 71 212 138 243c15 7 44 12 60 12c19 0 71 -21 98 -32c13 9 30 28 38 28c12 0 25 -8 25 -8zM166 59c2 -1 4 -2 9 -2c25 0 72 38 121 93l18 200
c-36 22 -81 47 -124 58c-10 0 -69 -98 -69 -198c0 -73 12 -136 45 -151zM210 516c-6 7 -8 17 -8 17s110 138 129 157c0 0 18 -3 33 -19c16 -18 19 -34 19 -34c-16 -15 -159 -129 -159 -129s-7 1 -14 8z" />
    <glyph glyph-name="egrave" unicode="&#xe8;" horiz-adv-x="377" 
d="M312 214c-14 -5 -155 -5 -198 -5v-28c0 -92 33 -131 85 -131c45 0 96 44 122 66l17 -39c-37 -42 -87 -89 -163 -89c-90 0 -147 70 -147 188c0 124 74 271 228 277c69 2 95 -54 99 -105c3 -38 -10 -94 -14 -110c-3 -12 -13 -21 -29 -24zM158 369c-21 -28 -35 -67 -41 -118
l175 15c0 46 -6 141 -69 140c-38 -2 -65 -37 -65 -37zM299 520c-6 -8 -13 -10 -13 -10s-172 105 -189 118c0 0 0 18 14 38c13 18 32 24 32 24c22 -17 162 -153 162 -153s-1 -10 -6 -17z" />
    <glyph glyph-name="eacute" unicode="&#xe9;" horiz-adv-x="377" 
d="M312 214c-14 -5 -155 -5 -198 -5v-28c0 -92 33 -131 85 -131c45 0 96 44 122 66l17 -39c-37 -42 -87 -89 -163 -89c-90 0 -147 70 -147 188c0 124 74 271 228 277c69 2 95 -54 99 -105c3 -38 -10 -94 -14 -110c-3 -12 -13 -21 -29 -24zM158 369c-21 -28 -35 -67 -41 -118
l175 15c0 46 -6 141 -69 140c-38 -2 -65 -37 -65 -37zM189 516c-6 7 -8 17 -8 17s110 138 129 157c0 0 18 -3 33 -19c16 -18 19 -34 19 -34c-16 -15 -159 -129 -159 -129s-7 1 -14 8z" />
    <glyph glyph-name="Eacute" unicode="&#xc9;" horiz-adv-x="548" 
d="M395 223h-32l-10 99l-165 6l-22 -291l272 13l42 120l33 -6l-16 -164h-497l2 32l77 18l45 600l-63 18l2 32h426l16 -162l-33 -6l-42 120l-218 13l-22 -299l163 6l20 94h39zM262 768c-6 7 -8 17 -8 17s110 138 129 157c0 0 18 -3 33 -19c16 -18 19 -34 19 -34
c-16 -15 -159 -129 -159 -129s-7 1 -14 8z" />
    <glyph glyph-name="Egrave" unicode="&#xc8;" horiz-adv-x="548" 
d="M395 223h-32l-10 99l-165 6l-22 -291l272 13l42 120l33 -6l-16 -164h-497l2 32l77 18l45 600l-63 18l2 32h426l16 -162l-33 -6l-42 120l-218 13l-22 -299l163 6l20 94h39zM382 771c-6 -8 -13 -10 -13 -10s-172 105 -189 118c0 0 0 18 14 38c13 18 32 24 32 24
c22 -17 162 -153 162 -153s-1 -10 -6 -17z" />
    <glyph glyph-name="Aacute" unicode="&#xc1;" horiz-adv-x="580" 
d="M159 0h-211l3 35l61 16l260 649h79l166 -652v3l54 -16l-2 -35h-225l2 35l76 16l-48 212h-217l-81 -212l85 -16zM293 615l-118 -305h188zM285 768c-6 7 -8 17 -8 17s110 138 129 157c0 0 18 -3 33 -19c16 -18 19 -34 19 -34c-16 -15 -159 -129 -159 -129s-7 1 -14 8z" />
    <glyph glyph-name="Agrave" unicode="&#xc0;" horiz-adv-x="580" 
d="M159 0h-211l3 35l61 16l260 649h79l166 -652v3l54 -16l-2 -35h-225l2 35l76 16l-48 212h-217l-81 -212l85 -16zM293 615l-118 -305h188zM355 771c-6 -8 -13 -10 -13 -10s-172 105 -189 118c0 0 0 18 14 38c13 18 32 24 32 24c22 -17 162 -153 162 -153s-1 -10 -6 -17z
" />
    <glyph glyph-name="adieresis" unicode="&#xe4;" horiz-adv-x="460" 
d="M363 49l66 -15l-4 -34s-32 -4 -66 -4c-52 0 -73 31 -70 71l3 40c-28 -43 -84 -115 -127 -115c-62 0 -128 65 -128 206c0 127 71 212 138 243c15 7 44 12 60 12c19 0 71 -21 98 -32c13 9 30 28 38 28c12 0 25 -8 25 -8zM166 59c2 -1 4 -2 9 -2c25 0 72 38 121 93l18 200
c-36 22 -81 47 -124 58c-10 0 -69 -98 -69 -198c0 -73 12 -136 45 -151zM211 610c23 -2 40 -23 38 -47c-2 -25 -21 -45 -43 -43c-23 2 -39 23 -38 47c3 26 22 44 43 43zM347 610c23 -2 40 -23 39 -47c-3 -25 -22 -45 -44 -43s-39 23 -37 47c2 26 21 44 42 43z" />
    <glyph glyph-name="Adieresis" unicode="&#xc4;" horiz-adv-x="580" 
d="M159 0h-211l3 35l61 16l260 649h79l166 -652v3l54 -16l-2 -35h-225l2 35l76 16l-48 212h-217l-81 -212l85 -16zM293 615l-118 -305h188zM246 862c23 -2 40 -23 38 -47c-2 -25 -21 -45 -43 -43c-23 2 -39 23 -38 47c3 26 22 44 43 43zM382 862c23 -2 40 -23 39 -47
c-3 -25 -22 -45 -44 -43s-39 23 -37 47c2 26 21 44 42 43z" />
    <glyph glyph-name="Edieresis" unicode="&#xcb;" horiz-adv-x="548" 
d="M395 223h-32l-10 99l-165 6l-22 -291l272 13l42 120l33 -6l-16 -164h-497l2 32l77 18l45 600l-63 18l2 32h426l16 -162l-33 -6l-42 120l-218 13l-22 -299l163 6l20 94h39zM254 862c23 -2 40 -23 38 -47c-2 -25 -21 -45 -43 -43c-23 2 -39 23 -38 47c3 26 22 44 43 43z
M390 862c23 -2 40 -23 39 -47c-3 -25 -22 -45 -44 -43s-39 23 -37 47c2 26 21 44 42 43z" />
    <glyph glyph-name="udieresis" unicode="&#xfc;" horiz-adv-x="468" 
d="M195 610c23 -2 40 -23 38 -47c-2 -25 -21 -45 -43 -43c-23 2 -39 23 -38 47c3 26 22 44 43 43zM331 610c23 -2 40 -23 39 -47c-3 -25 -22 -45 -44 -43s-39 23 -37 47c2 26 21 44 42 43zM306 159l34 288s17 6 31 6c16 0 29 -6 29 -6c7 -9 17 -31 11 -102
c-6 -66 -34 -149 -34 -149l-9 -139l62 -6l-1 -28l-112 -22c-11 -2 -17 9 -16 18l17 109c-12 -20 -33 -53 -53 -73c-43 -44 -73 -61 -111 -61c-27 0 -53 17 -68 37c-19 25 -26 62 -20 113l30 259l-67 9l2 27s72 13 98 13c34 0 49 -37 44 -90l-28 -251c-3 -25 10 -47 24 -52
c31 0 51 12 83 38c11 9 37 41 54 62z" />
    <glyph glyph-name="edieresis" unicode="&#xeb;" horiz-adv-x="377" 
d="M312 214c-14 -5 -155 -5 -198 -5v-28c0 -92 33 -131 85 -131c45 0 96 44 122 66l17 -39c-37 -42 -87 -89 -163 -89c-90 0 -147 70 -147 188c0 124 74 271 228 277c69 2 95 -54 99 -105c3 -38 -10 -94 -14 -110c-3 -12 -13 -21 -29 -24zM158 369c-21 -28 -35 -67 -41 -118
l175 15c0 46 -6 141 -69 140c-38 -2 -65 -37 -65 -37zM175 610c23 -2 40 -23 38 -47c-2 -25 -21 -45 -43 -43c-23 2 -39 23 -38 47c3 26 22 44 43 43zM311 610c23 -2 40 -23 39 -47c-3 -25 -22 -45 -44 -43s-39 23 -37 47c2 26 21 44 42 43z" />
    <glyph glyph-name="idieresis" unicode="&#xef;" horiz-adv-x="259" 
d="M74 90l29 298l-63 9l1 27l86 18c2 0 5 1 9 1c43 0 44 -32 40 -90l-24 -304l66 -15l-4 -34s-32 -4 -66 -4c-59 0 -80 32 -74 94zM72 610c23 -2 40 -23 38 -47c-2 -25 -21 -45 -43 -43c-23 2 -39 23 -38 47c3 26 22 44 43 43zM208 610c23 -2 40 -23 39 -47
c-3 -25 -22 -45 -44 -43s-39 23 -37 47c2 26 21 44 42 43z" />
    <glyph glyph-name="odieresis" unicode="&#xf6;" horiz-adv-x="438" 
d="M188 610c23 -2 40 -23 38 -47c-2 -25 -21 -45 -43 -43c-23 2 -39 23 -38 47c3 26 22 44 43 43zM324 610c23 -2 40 -23 39 -47c-3 -25 -22 -45 -44 -43s-39 23 -37 47c2 26 21 44 42 43zM192 -12c-99 0 -165 59 -165 207c0 147 97 258 218 258c110 0 169 -48 169 -187
c0 -145 -99 -278 -222 -278zM198 28c70 0 127 108 127 244c0 86 -36 143 -90 143c-64 0 -117 -94 -117 -228c0 -82 22 -159 80 -159z" />
    <glyph glyph-name="Udieresis" unicode="&#xdc;" horiz-adv-x="613" 
d="M436 700h202l-2 -32l-71 -20h-1l-39 -404c-7 -68 -24 -151 -62 -189c-49 -49 -113 -68 -177 -68c-81 0 -132 18 -170 54c-44 41 -58 105 -54 181l31 428l-63 18l2 32h227l-2 -32l-76 -18l-26 -412c-3 -126 33 -192 143 -192c51 0 92 12 122 50c29 36 42 79 49 152
c4 43 23 315 28 402l-63 18zM284 862c23 -2 40 -23 38 -47c-2 -25 -21 -45 -43 -43c-23 2 -39 23 -38 47c3 26 22 44 43 43zM420 862c23 -2 40 -23 39 -47c-3 -25 -22 -45 -44 -43s-39 23 -37 47c2 26 21 44 42 43z" />
    <glyph glyph-name="Idieresis" unicode="&#xcf;" 
d="M79 50l45 600l-63 18l2 32h226l-2 -32l-76 -18h-1l-42 -600l76 -15l-4 -35h-240l2 32zM117 862c23 -2 40 -23 38 -47c-2 -25 -21 -45 -43 -43c-23 2 -39 23 -38 47c3 26 22 44 43 43zM253 862c23 -2 40 -23 39 -47c-3 -25 -22 -45 -44 -43s-39 23 -37 47
c2 26 21 44 42 43z" />
    <glyph glyph-name="Odieresis" unicode="&#xd6;" horiz-adv-x="640" 
d="M293 862c23 -2 40 -23 38 -47c-2 -25 -21 -45 -43 -43c-23 2 -39 23 -38 47c3 26 22 44 43 43zM429 862c23 -2 40 -23 39 -47c-3 -25 -22 -45 -44 -43s-39 23 -37 47c2 26 21 44 42 43zM294 -12c-136 0 -274 90 -274 351c1 209 131 378 328 378c162 0 282 -81 282 -319
c0 -235 -143 -410 -336 -410zM313 38c154 0 216 215 216 372c0 177 -70 263 -192 263c-116 0 -209 -120 -209 -350c0 -222 78 -285 185 -285z" />
    <glyph glyph-name="acircumflex" unicode="&#xe2;" horiz-adv-x="460" 
d="M363 49l66 -15l-4 -34s-32 -4 -66 -4c-52 0 -73 31 -70 71l3 40c-28 -43 -84 -115 -127 -115c-62 0 -128 65 -128 206c0 127 71 212 138 243c15 7 44 12 60 12c19 0 71 -21 98 -32c13 9 30 28 38 28c12 0 25 -8 25 -8zM166 59c2 -1 4 -2 9 -2c25 0 72 38 121 93l18 200
c-36 22 -81 47 -124 58c-10 0 -69 -98 -69 -198c0 -73 12 -136 45 -151zM363 515c-9 -7 -22 -6 -22 -6l-68 91l-104 -92s-7 1 -14 8c-6 7 -8 17 -8 17l117 135h34c29 -46 76 -138 76 -138s-2 -8 -11 -15z" />
    <glyph glyph-name="ecircumflex" unicode="&#xea;" horiz-adv-x="377" 
d="M312 214c-14 -5 -155 -5 -198 -5v-28c0 -92 33 -131 85 -131c45 0 96 44 122 66l17 -39c-37 -42 -87 -89 -163 -89c-90 0 -147 70 -147 188c0 124 74 271 228 277c69 2 95 -54 99 -105c3 -38 -10 -94 -14 -110c-3 -12 -13 -21 -29 -24zM158 369c-21 -28 -35 -67 -41 -118
l175 15c0 46 -6 141 -69 140c-38 -2 -65 -37 -65 -37zM345 515c-9 -7 -22 -6 -22 -6l-68 91l-104 -92s-7 1 -14 8c-6 7 -8 17 -8 17l117 135h34c29 -46 76 -138 76 -138s-2 -8 -11 -15z" />
    <glyph glyph-name="icircumflex" unicode="&#xee;" horiz-adv-x="259" 
d="M236 515c-9 -7 -22 -6 -22 -6l-68 91l-104 -92s-7 1 -14 8c-6 7 -8 17 -8 17l117 135h34c29 -46 76 -138 76 -138s-2 -8 -11 -15zM74 90l29 298l-63 9l1 27l86 18c2 0 5 1 9 1c43 0 44 -32 40 -90l-24 -304l66 -15l-4 -34s-32 -4 -66 -4c-59 0 -80 32 -74 94z" />
    <glyph glyph-name="ocircumflex" unicode="&#xf4;" horiz-adv-x="438" 
d="M355 515c-9 -7 -22 -6 -22 -6l-68 91l-104 -92s-7 1 -14 8c-6 7 -8 17 -8 17l117 135h34c29 -46 76 -138 76 -138s-2 -8 -11 -15zM192 -12c-99 0 -165 59 -165 207c0 147 97 258 218 258c110 0 169 -48 169 -187c0 -145 -99 -278 -222 -278zM198 28c70 0 127 108 127 244
c0 86 -36 143 -90 143c-64 0 -117 -94 -117 -228c0 -82 22 -159 80 -159z" />
    <glyph glyph-name="ucircumflex" unicode="&#xfb;" horiz-adv-x="468" 
d="M360 515c-9 -7 -22 -6 -22 -6l-68 91l-104 -92s-7 1 -14 8c-6 7 -8 17 -8 17l117 135h34c29 -46 76 -138 76 -138s-2 -8 -11 -15zM306 159l34 288s17 6 31 6c16 0 29 -6 29 -6c7 -9 17 -31 11 -102c-6 -66 -34 -149 -34 -149l-9 -139l62 -6l-1 -28l-112 -22
c-11 -2 -17 9 -16 18l17 109c-12 -20 -33 -53 -53 -73c-43 -44 -73 -61 -111 -61c-27 0 -53 17 -68 37c-19 25 -26 62 -20 113l30 259l-67 9l2 27s72 13 98 13c34 0 49 -37 44 -90l-28 -251c-3 -25 10 -47 24 -52c31 0 51 12 83 38c11 9 37 41 54 62z" />
    <glyph glyph-name="Acircumflex" unicode="&#xc2;" horiz-adv-x="580" 
d="M159 0h-211l3 35l61 16l260 649h79l166 -652v3l54 -16l-2 -35h-225l2 35l76 16l-48 212h-217l-81 -212l85 -16zM293 615l-118 -305h188zM420 767c-9 -7 -22 -6 -22 -6l-68 91l-104 -92s-7 1 -14 8c-6 7 -8 17 -8 17l117 135h34c29 -46 76 -138 76 -138s-2 -8 -11 -15z
" />
    <glyph glyph-name="Ecircumflex" unicode="&#xca;" horiz-adv-x="548" 
d="M395 223h-32l-10 99l-165 6l-22 -291l272 13l42 120l33 -6l-16 -164h-497l2 32l77 18l45 600l-63 18l2 32h426l16 -162l-33 -6l-42 120l-218 13l-22 -299l163 6l20 94h39zM409 767c-9 -7 -22 -6 -22 -6l-68 91l-104 -92s-7 1 -14 8c-6 7 -8 17 -8 17l117 135h34
c29 -46 76 -138 76 -138s-2 -8 -11 -15z" />
    <glyph glyph-name="Icircumflex" unicode="&#xce;" 
d="M79 50l45 600l-63 18l2 32h226l-2 -32l-76 -18h-1l-42 -600l76 -15l-4 -35h-240l2 32zM280 767c-9 -7 -22 -6 -22 -6l-68 91l-104 -92s-7 1 -14 8c-6 7 -8 17 -8 17l117 135h34c29 -46 76 -138 76 -138s-2 -8 -11 -15z" />
    <glyph glyph-name="Ocircumflex" unicode="&#xd4;" horiz-adv-x="640" 
d="M465 767c-9 -7 -22 -6 -22 -6l-68 91l-104 -92s-7 1 -14 8c-6 7 -8 17 -8 17l117 135h34c29 -46 76 -138 76 -138s-2 -8 -11 -15zM294 -12c-136 0 -274 90 -274 351c1 209 131 378 328 378c162 0 282 -81 282 -319c0 -235 -143 -410 -336 -410zM313 38
c154 0 216 215 216 372c0 177 -70 263 -192 263c-116 0 -209 -120 -209 -350c0 -222 78 -285 185 -285z" />
    <glyph glyph-name="Ucircumflex" unicode="&#xdb;" horiz-adv-x="613" 
d="M436 700h202l-2 -32l-71 -20h-1l-39 -404c-7 -68 -24 -151 -62 -189c-49 -49 -113 -68 -177 -68c-81 0 -132 18 -170 54c-44 41 -58 105 -54 181l31 428l-63 18l2 32h227l-2 -32l-76 -18l-26 -412c-3 -126 33 -192 143 -192c51 0 92 12 122 50c29 36 42 79 49 152
c4 43 23 315 28 402l-63 18zM456 767c-9 -7 -22 -6 -22 -6l-68 91l-104 -92s-7 1 -14 8c-6 7 -8 17 -8 17l117 135h34c29 -46 76 -138 76 -138s-2 -8 -11 -15z" />
    <glyph glyph-name="at" unicode="@" horiz-adv-x="770" 
d="M585 -65v-1s8 -4 10 -12c3 -9 0 -18 0 -18c-65 -38 -143 -60 -234 -60c-179 0 -315 130 -315 353c0 220 152 389 382 389c177 0 303 -90 303 -289c0 -83 -21 -158 -62 -212c-41 -53 -76 -78 -135 -78c-31 0 -48 10 -64 34c-11 15 -15 40 -14 76
c-27 -44 -73 -109 -110 -109c-58 0 -119 61 -119 192c0 118 66 197 128 225c14 7 41 11 56 11c14 0 53 -18 80 -30c12 8 28 27 36 27c11 0 23 -8 23 -8l-26 -310c-4 -53 1 -73 20 -73c37 0 57 14 89 59c25 35 35 113 35 201c0 150 -77 246 -244 246
c-211 0 -305 -159 -305 -361c0 -182 99 -303 245 -303c81 0 148 15 221 51zM347 71c2 -1 4 -2 8 -2c22 0 61 41 104 91l15 181c-32 21 -69 45 -105 54c-9 0 -64 -91 -64 -184c0 -68 11 -126 42 -140z" />
    <glyph glyph-name="oacute" unicode="&#xf3;" horiz-adv-x="438" 
d="M194 516c-6 7 -8 17 -8 17s110 138 129 157c0 0 18 -3 33 -19c16 -18 19 -34 19 -34c-16 -15 -159 -129 -159 -129s-7 1 -14 8zM192 -12c-99 0 -165 59 -165 207c0 147 97 258 218 258c110 0 169 -48 169 -187c0 -145 -99 -278 -222 -278zM198 28c70 0 127 108 127 244
c0 86 -36 143 -90 143c-64 0 -117 -94 -117 -228c0 -82 22 -159 80 -159z" />
    <glyph glyph-name="uacute" unicode="&#xfa;" horiz-adv-x="468" 
d="M220 516c-6 7 -8 17 -8 17s110 138 129 157c0 0 18 -3 33 -19c16 -18 19 -34 19 -34c-16 -15 -159 -129 -159 -129s-7 1 -14 8zM306 159l34 288s17 6 31 6c16 0 29 -6 29 -6c7 -9 17 -31 11 -102c-6 -66 -34 -149 -34 -149l-9 -139l62 -6l-1 -28l-112 -22
c-11 -2 -17 9 -16 18l17 109c-12 -20 -33 -53 -53 -73c-43 -44 -73 -61 -111 -61c-27 0 -53 17 -68 37c-19 25 -26 62 -20 113l30 259l-67 9l2 27s72 13 98 13c34 0 49 -37 44 -90l-28 -251c-3 -25 10 -47 24 -52c31 0 51 12 83 38c11 9 37 41 54 62z" />
    <glyph glyph-name="iacute" unicode="&#xed;" horiz-adv-x="259" 
d="M74 90l29 298l-63 9l1 27l86 18c2 0 5 1 9 1c43 0 44 -32 40 -90l-24 -304l66 -15l-4 -34s-32 -4 -66 -4c-59 0 -80 32 -74 94zM125 516c-6 7 -8 17 -8 17s110 138 129 157c0 0 18 -3 33 -19c16 -18 19 -34 19 -34c-16 -15 -159 -129 -159 -129s-7 1 -14 8z" />
    <glyph glyph-name="igrave" unicode="&#xec;" horiz-adv-x="259" 
d="M74 90l29 298l-63 9l1 27l86 18c2 0 5 1 9 1c43 0 44 -32 40 -90l-24 -304l66 -15l-4 -34s-32 -4 -66 -4c-59 0 -80 32 -74 94zM191 520c-6 -8 -13 -10 -13 -10s-172 105 -189 118c0 0 0 18 14 38c13 18 32 24 32 24c22 -17 162 -153 162 -153s-1 -10 -6 -17z" />
    <glyph glyph-name="ograve" unicode="&#xf2;" horiz-adv-x="438" 
d="M312 520c-6 -8 -13 -10 -13 -10s-172 105 -189 118c0 0 0 18 14 38c13 18 32 24 32 24c22 -17 162 -153 162 -153s-1 -10 -6 -17zM192 -12c-99 0 -165 59 -165 207c0 147 97 258 218 258c110 0 169 -48 169 -187c0 -145 -99 -278 -222 -278zM198 28c70 0 127 108 127 244
c0 86 -36 143 -90 143c-64 0 -117 -94 -117 -228c0 -82 22 -159 80 -159z" />
    <glyph glyph-name="ugrave" unicode="&#xf9;" horiz-adv-x="468" 
d="M293 520c-6 -8 -13 -10 -13 -10s-172 105 -189 118c0 0 0 18 14 38c13 18 32 24 32 24c22 -17 162 -153 162 -153s-1 -10 -6 -17zM306 159l34 288s17 6 31 6c16 0 29 -6 29 -6c7 -9 17 -31 11 -102c-6 -66 -34 -149 -34 -149l-9 -139l62 -6l-1 -28l-112 -22
c-11 -2 -17 9 -16 18l17 109c-12 -20 -33 -53 -53 -73c-43 -44 -73 -61 -111 -61c-27 0 -53 17 -68 37c-19 25 -26 62 -20 113l30 259l-67 9l2 27s72 13 98 13c34 0 49 -37 44 -90l-28 -251c-3 -25 10 -47 24 -52c31 0 51 12 83 38c11 9 37 41 54 62z" />
    <glyph glyph-name="Iacute" unicode="&#xcd;" 
d="M79 50l45 600l-63 18l2 32h226l-2 -32l-76 -18h-1l-42 -600l76 -15l-4 -35h-240l2 32zM140 768c-6 7 -8 17 -8 17s110 138 129 157c0 0 18 -3 33 -19c16 -18 19 -34 19 -34c-16 -15 -159 -129 -159 -129s-7 1 -14 8z" />
    <glyph glyph-name="Ograve" unicode="&#xd2;" horiz-adv-x="640" 
d="M418 771c-6 -8 -13 -10 -13 -10s-172 105 -189 118c0 0 0 18 14 38c13 18 32 24 32 24c22 -17 162 -153 162 -153s-1 -10 -6 -17zM294 -12c-136 0 -274 90 -274 351c1 209 131 378 328 378c162 0 282 -81 282 -319c0 -235 -143 -410 -336 -410zM313 38
c154 0 216 215 216 372c0 177 -70 263 -192 263c-116 0 -209 -120 -209 -350c0 -222 78 -285 185 -285z" />
    <glyph glyph-name="Ugrave" unicode="&#xd9;" horiz-adv-x="613" 
d="M436 700h202l-2 -32l-71 -20h-1l-39 -404c-7 -68 -24 -151 -62 -189c-49 -49 -113 -68 -177 -68c-81 0 -132 18 -170 54c-44 41 -58 105 -54 181l31 428l-63 18l2 32h227l-2 -32l-76 -18l-26 -412c-3 -126 33 -192 143 -192c51 0 92 12 122 50c29 36 42 79 49 152
c4 43 23 315 28 402l-63 18zM394 771c-6 -8 -13 -10 -13 -10s-172 105 -189 118c0 0 0 18 14 38c13 18 32 24 32 24c22 -17 162 -153 162 -153s-1 -10 -6 -17z" />
    <glyph glyph-name="Oacute" unicode="&#xd3;" horiz-adv-x="640" 
d="M306 768c-6 7 -8 17 -8 17s110 138 129 157c0 0 18 -3 33 -19c16 -18 19 -34 19 -34c-16 -15 -159 -129 -159 -129s-7 1 -14 8zM294 -12c-136 0 -274 90 -274 351c1 209 131 378 328 378c162 0 282 -81 282 -319c0 -235 -143 -410 -336 -410zM313 38
c154 0 216 215 216 372c0 177 -70 263 -192 263c-116 0 -209 -120 -209 -350c0 -222 78 -285 185 -285z" />
    <glyph glyph-name="Uacute" unicode="&#xda;" horiz-adv-x="613" 
d="M436 700h202l-2 -32l-71 -20h-1l-39 -404c-7 -68 -24 -151 -62 -189c-49 -49 -113 -68 -177 -68c-81 0 -132 18 -170 54c-44 41 -58 105 -54 181l31 428l-63 18l2 32h227l-2 -32l-76 -18l-26 -412c-3 -126 33 -192 143 -192c51 0 92 12 122 50c29 36 42 79 49 152
c4 43 23 315 28 402l-63 18zM304 768c-6 7 -8 17 -8 17s110 138 129 157c0 0 18 -3 33 -19c16 -18 19 -34 19 -34c-16 -15 -159 -129 -159 -129s-7 1 -14 8z" />
    <glyph glyph-name="dollar" unicode="$" horiz-adv-x="396" 
d="M161 -113l8 101h-1c-79 0 -145 42 -162 108c0 0 17 16 34 23c16 7 35 9 35 9l31 -88c12 -12 38 -19 66 -19l15 181c-4 2 -8 5 -12 8c-71 46 -108 85 -108 148c0 41 25 77 44 90c25 17 56 31 99 35l11 133h45l-11 -131c74 -3 115 -36 125 -99c0 0 -10 -12 -27 -19
c-16 -7 -38 -9 -38 -9l-28 88c-5 3 -20 5 -35 6l-15 -178c65 -43 120 -90 120 -145c0 -50 -17 -83 -44 -102c-29 -20 -59 -32 -100 -36l-9 -104h-43zM137 375c0 -25 19 -47 58 -74l12 147c-17 -5 -33 -12 -45 -22c-18 -14 -25 -30 -25 -51zM285 109c0 21 -21 41 -57 65
l-12 -149c16 5 29 11 39 21c19 18 30 36 30 63z" />
    <glyph glyph-name="a" unicode="a" horiz-adv-x="460" 
d="M363 49l66 -15l-4 -34s-32 -4 -66 -4c-52 0 -73 31 -70 71l3 40c-28 -43 -84 -115 -127 -115c-62 0 -128 65 -128 206c0 127 71 212 138 243c15 7 44 12 60 12c19 0 71 -21 98 -32c13 9 30 28 38 28c12 0 25 -8 25 -8zM166 59c2 -1 4 -2 9 -2c25 0 72 38 121 93l18 200
c-36 22 -81 47 -124 58c-10 0 -69 -98 -69 -198c0 -73 12 -136 45 -151z" />
    </font>
</defs>
</svg>
